<svg height="56" viewBox="0 0 199 56" width="199" xmlns="http://www.w3.org/2000/svg"><g fill="none" fill-rule="nonzero"><path d="m70.8412996 22.0353987c1.901885 0 3.8769193.8350205 5.1579486 2.1420092l-1.884512 2.2146196c-.8412183-1.0165467-2.0847585-1.6518884-3.2194889-1.6518884-2.0298964 0-3.5660343 1.5983382-3.5660343 3.6867972 0 2.1238565 1.5361379 3.7394397 3.5660343 3.7394397 1.0798684 0 2.3234085-.5817915 3.2194889-1.4894225l1.9027993 1.9976959c-1.3715516 1.3968441-3.4023624 2.324443-5.28596 2.324443-3.8595463 0-6.7315755-2.8154714-6.7315755-6.5358509 0-3.6677369 2.9451786-6.4278428 6.8412996-6.4278428zm67.2599784 0c3.969271 0 6.932736 2.7601059 6.932736 6.4459954 0 3.7049498-2.963465 6.5186059-6.932736 6.5186059-3.950983 0-6.914449-2.7964111-6.914449-6.5186059 0-3.7040421 2.963466-6.4459954 6.914449-6.4459954zm40.597929-.0353987c1.847023-.0009065 3.731535.5618247 5.048224 1.4149978l-1.226167 2.5232142c-1.353264-.7805626-3.053988-1.3251412-4.096367-1.3251412-.841219 0-1.409041.3085945-1.409041.9266912 0 2.1964671 6.76815.9439363 6.76815 5.5374568 0 2.5431821-2.267632 3.8855683-5.122288 3.8855683-2.139621 0-4.334103-.7987153-5.852868-2.0330934l1.261827-2.4878166c1.317604 1.1454303 3.293553 1.9078404 4.62853 1.9078404 1.023177 0 1.664149-.3812051 1.664149-1.1082175 0-2.2500173-6.76815-.907631-6.76815-5.4103884 0-2.341688 2.031725-3.8311116 5.104001-3.8311116zm-94.2722311.1443144c3.3840751 0 5.3225347 1.5983382 5.3225347 4.430147 0 1.943238-.8229309 3.3409897-2.3234084 4.0852471l2.6900699 4.1941629h-3.6949601l-1.901885-3.5751585h-2.5611441v3.5751585h-3.2560636v-12.709557zm10.4786546 0 3.090563 5.5383644 3.0174135-5.5383644h3.256978l-4.6468169 8.6052496v4.1043074h-3.2368618v-4.0126367l-4.7373394-8.6969203zm17.3373275 0c3.274351 0 5.158863 1.5983382 5.158863 4.430147 0 2.9779373-1.884512 4.7042515-5.158863 4.7042515h-2.322494v3.5751585h-3.256064v-12.709557zm17.848458-.0190602v2.6148849h-3.858632v10.1137323h-3.256063v-10.1137323h-3.823886v-2.6148849zm27.228958 0v2.6148849h-3.857717v10.1137323h-3.256978v-10.1137323h-3.822058v-2.6148849zm8.723983.0190602 5.39477 12.709557h-3.475512l-.914368-2.341688h-5.595931l-.932655 2.341688h-3.348414l5.525524-12.709557zm23.974723 0v5.5020592l4.901925-5.5020592h3.767196l-4.754713 5.2651675 5.066512 7.4443895h-3.897035l-3.384076-4.9928782-1.699809 1.8715352v3.121343h-3.256064v-12.709557zm-51.882142 2.5958247c-1.975034 0-3.620896 1.6164908-3.620896 3.7585 0 2.1429168 1.663235 3.7957129 3.620896 3.7957129 1.975035 0 3.548662-1.6518885 3.548662-3.7957129 0-2.1420092-1.573627-3.7585-3.548662-3.7585zm26.132631.6180967-1.86531 4.7024363h3.69496zm-79.8416788-.6716469h-2.4697073v4.0489419h2.4697073c1.4090408 0 2.2310574-.7079522 2.2310574-2.0521537 0-1.3251413-.822931-1.9967882-2.2310574-1.9967882zm27.6504808 0h-2.157907v4.0489419h2.157907c1.426414 0 2.249345-.7079522 2.249345-2.0521537 0-1.3251413-.822931-1.9967882-2.249345-1.9967882z" fill="#070b17"/><path d="m23.828 0-23.828 13.362v27.668l14.71 8.97v-5.913l-9.653-5.886v-21.887l18.386-10.311v2.002 7.951.043l.038-.022 4.865 2.715v22.948h.482l4.576-2.632v-17.495l4.596 2.564v-5.78l-9.5-5.3v-.388-8.425-1.453z" fill="#0173f9"/><path d="m31.928 11.751 9.944 5.518v22.336l-18.764 10.581-.347-.208v-10.424l-9.633-5.601v-11.339l6.059-3.496v-5.808l-11.187 6.455v17.028l9.478 5.509.156-.056v.148 8.305 2.082l5.401 3.219 23.965-13.513v-28.125l-15.072-8.362z" fill="#00b42f"/></g></svg>