<?xml version="1.0" encoding="utf-8"?>
<!-- Generator: Adobe Illustrator 23.0.1, SVG Export Plug-In . SVG Version: 6.00 Build 0)  -->
<svg version="1.1" id="Layer_1" xmlns="http://www.w3.org/2000/svg" xmlns:xlink="http://www.w3.org/1999/xlink" x="0px" y="0px"
	 viewBox="0 0 47 56" height="56" width="47" style="enable-background:new 0 0 47 56;" xml:space="preserve">
<style type="text/css">
	.st0{fill:#0173F9;}
	.st1{fill:#00B42F;}
</style>
<g>
	<path class="st0" d="M23.8,0L0,13.4V41l14.7,9v-5.9l-9.7-5.9V16.3L23.4,6v2v8v0l0,0l4.9,2.7v22.9h0.5l4.6-2.6V21.5l4.6,2.6v-5.8
		L28.5,13v-0.4V4.2V2.7L23.8,0z"/>
	<path class="st1" d="M31.9,11.8l9.9,5.5v22.3L23.1,50.2L22.8,50V39.6L13.1,34V22.6l6.1-3.5v-5.8L8,19.8v17l9.5,5.5l0.2-0.1v0.1v8.3
		v2.1L23,56l24-13.5V14.4L31.9,6L31.9,11.8z"/>
</g>
</svg>
