<?xml version="1.0" encoding="UTF-8"?>
<svg width="199px" height="56px" viewBox="0 0 199 56" version="1.1" xmlns="http://www.w3.org/2000/svg" xmlns:xlink="http://www.w3.org/1999/xlink">
    <!-- Generator: sketchtool 57.1 (101010) - https://sketch.com -->
    <title>89AC721B-D53D-49CD-8F2A-AE2A8C8C7F8F</title>
    <desc>Created with sketchtool.</desc>
    <defs>
        <polygon id="path-1" points="23.8278537 0 0 13.362037 0 41.0296296 14.7097073 50 14.7097073 44.087037 5.05678049 38.2009259 5.05678049 16.3138889 23.4432195 6.00277778 23.4432195 8.00462963 23.4432195 15.9555556 23.4432195 15.9990741 23.4812195 15.9768519 28.3461463 18.6916667 28.3461463 41.6398148 28.8280976 41.6398148 33.4038537 39.0083333 33.4038537 21.512963 38 24.0768519 38 18.2972222 28.5 12.9972222 28.5 12.6092593 28.5 4.18425926 28.5 2.73148148"></polygon>
        <polygon id="path-2" points="31.9283571 11.7509259 41.8724286 17.2685185 41.8724286 39.6046296 23.1078571 50.1861111 22.7605714 49.9777778 22.7605714 39.5537037 13.1275714 33.9527778 13.1275714 22.6138889 19.1874286 19.1175926 19.1874286 13.3101852 8 19.7648148 8 36.7925926 17.4779286 42.3018519 17.6339286 42.2462963 17.6339286 42.3935185 17.6339286 50.6990741 17.6339286 52.7805556 23.0354286 56 47 42.487037 47 14.362037 31.9283571 6"></polygon>
    </defs>
    <g id="Desktop" stroke="none" stroke-width="1" fill="none" fill-rule="evenodd">
        <g id="01-Home" transform="translate(-52.000000, -39.000000)" fill-rule="nonzero">
            <g id="header" transform="translate(52.000000, 39.000000)">
                <g id="Cryptotask-logo">
                    <g>
                        <g id="Fill-1">
                            <use fill="#5ED170" xlink:href="#path-1"></use>
                            <use fill="#1DCC4B" xlink:href="#path-1"></use>
                        </g>
                        <g id="Fill-3">
                            <use fill="#3DA2DD" xlink:href="#path-2"></use>
                            <use fill="#01C1F9" xlink:href="#path-2"></use>
                        </g>
                        <path d="M70.8412996,22.0353987 C72.7431846,22.0353987 74.7182189,22.8704192 75.9992482,24.1774079 L74.1147362,26.3920275 C73.2735179,25.3754808 72.0299777,24.7401391 70.8952473,24.7401391 C68.8653509,24.7401391 67.329213,26.3384773 67.329213,28.4269363 C67.329213,30.5507928 68.8653509,32.166376 70.8952473,32.166376 C71.9751157,32.166376 73.2186558,31.5845845 74.1147362,30.6769535 L76.0175355,32.6746494 C74.6459839,34.0714935 72.6151731,34.9990924 70.7315755,34.9990924 C66.8720292,34.9990924 64,32.183621 64,28.4632415 C64,24.7955046 66.9451786,22.0353987 70.8412996,22.0353987 Z M138.101278,22.0353987 C142.070549,22.0353987 145.034014,24.7955046 145.034014,28.4813941 C145.034014,32.1863439 142.070549,35 138.101278,35 C134.150295,35 131.186829,32.2035889 131.186829,28.4813941 C131.186829,24.777352 134.150295,22.0353987 138.101278,22.0353987 Z M178.699207,22 C180.54623,21.9990935 182.430742,22.5618247 183.747431,23.4149978 L182.521264,25.938212 C181.168,25.1576494 179.467276,24.6130708 178.424897,24.6130708 C177.583678,24.6130708 177.015856,24.9216653 177.015856,25.539762 C177.015856,27.7362291 183.784006,26.4836983 183.784006,31.0772188 C183.784006,33.6204009 181.516374,34.9627871 178.661718,34.9627871 C176.522097,34.9627871 174.327615,34.1640718 172.80885,32.9296937 L174.070677,30.4418771 C175.388281,31.5873074 177.36423,32.3497175 178.699207,32.3497175 C179.722384,32.3497175 180.363356,31.9685124 180.363356,31.2415 C180.363356,28.9914827 173.595206,30.333869 173.595206,25.8311116 C173.595206,23.4894236 175.626931,22 178.699207,22 Z M84.4269759,22.1443144 C87.811051,22.1443144 89.7495106,23.7426526 89.7495106,26.5744614 C89.7495106,28.5176994 88.9265797,29.9154511 87.4261022,30.6597085 L90.1161721,34.8538714 L86.421212,34.8538714 L84.519327,31.2787129 L81.9581829,31.2787129 L81.9581829,34.8538714 L78.7021193,34.8538714 L78.7021193,22.1443144 L84.4269759,22.1443144 Z M94.9056305,22.1443144 L97.9961935,27.6826788 L101.013607,22.1443144 L104.270585,22.1443144 L99.6237681,30.749564 L99.6237681,34.8538714 L96.3869063,34.8538714 L96.3869063,30.8412347 L91.6495669,22.1443144 L94.9056305,22.1443144 Z M112.242958,22.1443144 C115.517309,22.1443144 117.401821,23.7426526 117.401821,26.5744614 C117.401821,29.5523987 115.517309,31.2787129 112.242958,31.2787129 L109.920464,31.2787129 L109.920464,34.8538714 L106.6644,34.8538714 L106.6644,22.1443144 L112.242958,22.1443144 Z M130.091416,22.1252542 L130.091416,24.7401391 L126.232784,24.7401391 L126.232784,34.8538714 L122.976721,34.8538714 L122.976721,24.7401391 L119.152835,24.7401391 L119.152835,22.1252542 L130.091416,22.1252542 Z M157.320374,22.1252542 L157.320374,24.7401391 L153.462657,24.7401391 L153.462657,34.8538714 L150.205679,34.8538714 L150.205679,24.7401391 L146.383621,24.7401391 L146.383621,22.1252542 L157.320374,22.1252542 Z M166.044357,22.1443144 L171.439127,34.8538714 L167.963615,34.8538714 L167.049247,32.5121834 L161.453316,32.5121834 L160.520661,34.8538714 L157.172247,34.8538714 L162.697771,22.1443144 L166.044357,22.1443144 Z M190.01908,22.1443144 L190.01908,27.6463736 L194.921005,22.1443144 L198.688201,22.1443144 L193.933488,27.4094819 L199,34.8538714 L195.102965,34.8538714 L191.718889,29.8609932 L190.01908,31.7325284 L190.01908,34.8538714 L186.763016,34.8538714 L186.763016,22.1443144 L190.01908,22.1443144 Z M138.136938,24.7401391 C136.161904,24.7401391 134.516042,26.3566299 134.516042,28.4986391 C134.516042,30.6415559 136.179277,32.294352 138.136938,32.294352 C140.111973,32.294352 141.6856,30.6424635 141.6856,28.4986391 C141.6856,26.3566299 140.111973,24.7401391 138.136938,24.7401391 Z M164.269569,25.3582358 L162.404259,30.0606721 L166.099219,30.0606721 L164.269569,25.3582358 Z M84.4278902,24.6865889 L81.9581829,24.6865889 L81.9581829,28.7355308 L84.4278902,28.7355308 C85.836931,28.7355308 86.6589476,28.0275786 86.6589476,26.6833771 C86.6589476,25.3582358 85.8360166,24.6865889 84.4278902,24.6865889 Z M112.078371,24.6865889 L109.920464,24.6865889 L109.920464,28.7355308 L112.078371,28.7355308 C113.504785,28.7355308 114.327716,28.0275786 114.327716,26.6833771 C114.327716,25.3582358 113.504785,24.6865889 112.078371,24.6865889 Z" id="Combined-Shape" fill="#070B17"></path>
                    </g>
                </g>
            </g>
        </g>
    </g>
</svg>